<svg width="512" height="512" viewBox="0 0 512 512" fill="none" xmlns="http://www.w3.org/2000/svg">
  <rect width="512" height="512" rx="120" fill="#0B2E59"/>
  <circle cx="256" cy="256" r="165" stroke="#1E88E5" stroke-width="18" opacity="0.35"/>
  <path d="M151 345L237 155C245 137 270 137 278 155L361 345H312L294 302H219L200 345H151Z" fill="#FFFFFF"/>
  <path d="M236 260H278L257 210L236 260Z" fill="#0B2E59"/>
  <path d="M126 253C203 229 276 206 388 141C397 136 407 146 401 155C345 244 248 286 126 276C113 275 113 257 126 253Z" fill="#D9A441"/>
  <path d="M315 166L406 113L380 204L356 181L315 166Z" fill="#FFFFFF"/>
  <path d="M159 369C213 397 302 400 358 367" stroke="#1E88E5" stroke-width="16" stroke-linecap="round"/>
</svg>
